<svg width="80" height="70" viewBox="0 0 80 70" fill="none" xmlns="http://www.w3.org/2000/svg">
<path d="M40 6.73328C30.773 -1.53383 16.5833 -1.23393 7.71633 7.63299C-1.46099 16.8103 -1.46099 31.6897 7.71633 40.867L34.461 67.6117C37.5201 70.6708 42.4799 70.6708 45.539 67.6117L72.2837 40.867C81.461 31.6897 81.461 16.8103 72.2837 7.63299C63.4168 -1.23393 49.227 -1.53383 40 6.73328ZM35.4114 13.172L37.2305 14.9912C38.7601 16.5207 41.24 16.5207 42.7695 14.9912L44.5887 13.172C50.7069 7.05378 60.6265 7.05378 66.7447 13.172C72.8629 19.2902 72.8629 29.2098 66.7447 35.328L40 62.0727L13.2553 35.328C7.13712 29.2098 7.13712 19.2902 13.2553 13.172C19.3736 7.05378 29.2931 7.05378 35.4114 13.172Z" fill="#FFFDFD"/>
</svg>
